<?xml version="1.0" encoding="utf-8"?>
<!-- Generator: Adobe Illustrator 24.0.1, SVG Export Plug-In . SVG Version: 6.00 Build 0)  -->
<svg version="1.1" id="Layer_1" xmlns="http://www.w3.org/2000/svg" xmlns:xlink="http://www.w3.org/1999/xlink" x="0px" y="0px"
	 viewBox="0 0 1296.94 405.13" style="enable-background:new 0 0 1296.94 405.13;" xml:space="preserve">
<style type="text/css">
	.st0{fill:#0F3049;}
	.st1{fill:#F3966C;}
	.st2{opacity:0.84;fill:#F3966C;}
	.st3{fill:none;stroke:#F3966C;stroke-width:0.25;stroke-miterlimit:10;}
</style>
<rect x="-1.34" class="st0" width="1298.29" height="405.13"/>
<circle class="st1" cx="58.5" cy="45.5" r="2.5"/>
<circle class="st1" cx="99" cy="53" r="5"/>
<circle class="st1" cx="164.5" cy="29.5" r="1.5"/>
<circle class="st1" cx="226" cy="22" r="2"/>
<circle class="st1" cx="200" cy="60" r="2"/>
<circle class="st1" cx="206" cy="95" r="1"/>
<circle class="st1" cx="273.5" cy="103.5" r="7.5"/>
<circle class="st1" cx="325" cy="32" r="1"/>
<circle class="st1" cx="365.5" cy="89.5" r="4.5"/>
<circle class="st1" cx="434.5" cy="50.5" r="7.5"/>
<circle class="st1" cx="573.4" cy="262.37" r="7.5"/>
<circle class="st1" cx="374" cy="31" r="1"/>
<circle class="st1" cx="469" cy="18" r="2"/>
<circle class="st1" cx="530" cy="26" r="2"/>
<circle class="st1" cx="531.5" cy="107.5" r="3.5"/>
<circle class="st1" cx="613.17" cy="212.47" r="3.5"/>
<circle class="st1" cx="628.5" cy="318.57" r="3.5"/>
<circle class="st1" cx="622.5" cy="74.5" r="2.5"/>
<circle class="st2" cx="690.5" cy="54.5" r="3.5"/>
<circle class="st1" cx="681.5" cy="124.5" r="5.5"/>
<circle class="st1" cx="699.2" cy="244.07" r="5.5"/>
<circle class="st1" cx="82" cy="127" r="3"/>
<circle class="st1" cx="195" cy="138" r="3"/>
<circle class="st1" cx="283.5" cy="147.5" r="2.5"/>
<circle class="st1" cx="379.5" cy="145.5" r="4.5"/>
<circle class="st1" cx="479.5" cy="141.5" r="3.5"/>
<circle class="st1" cx="775" cy="115" r="4"/>
<circle class="st1" cx="790" cy="77" r="3"/>
<circle class="st1" cx="846" cy="60" r="2"/>
<circle class="st1" cx="897" cy="60" r="2"/>
<circle class="st1" cx="863" cy="131" r="7"/>
<circle class="st1" cx="1164.75" cy="77.5" r="7"/>
<circle class="st1" cx="831.92" cy="339.09" r="7"/>
<circle class="st1" cx="899" cy="238.57" r="7"/>
<circle class="st1" cx="1056.18" cy="233.96" r="7"/>
<circle class="st1" cx="929.5" cy="136.5" r="1.5"/>
<circle class="st1" cx="1072.44" cy="381.61" r="1.5"/>
<circle class="st1" cx="1073.94" cy="173.31" r="1.5"/>
<ellipse class="st1" cx="900.5" cy="100" rx="3.5" ry="4"/>
<ellipse class="st1" cx="1249.05" cy="218.68" rx="3.5" ry="4"/>
<circle class="st1" cx="803.5" cy="168.5" r="3.5"/>
<line class="st1" x1="200" y1="60" x2="82" y2="127"/>
<line class="st1" x1="195" y1="138" x2="206" y2="95"/>
<line class="st1" x1="200" y1="61" x2="206" y2="94"/>
<path class="st1" d="M166,29"/>
<line class="st3" x1="82" y1="127" x2="99.5" y2="52.5"/>
<line class="st3" x1="59" y1="46" x2="100" y2="53"/>
<line class="st3" x1="99" y1="53" x2="99" y2="53"/>
<line class="st3" x1="164.5" y1="29.5" x2="99" y2="53"/>
<polyline class="st3" points="164.5,29.5 200,60 273.5,103.5 283.5,147.5 233.85,138.86 181.4,165.97 139.99,146.01 "/>
<circle class="st1" cx="146.32" cy="116.21" r="2.29"/>
<circle class="st1" cx="262.59" cy="46.21" r="0.71"/>
<circle class="st1" cx="306.81" cy="54.36" r="1.36"/>
<circle class="st1" cx="358.27" cy="44.08" r="2.83"/>
<circle class="st1" cx="399.76" cy="60" r="2"/>
<circle class="st1" cx="96.87" cy="21" r="1"/>
<circle class="st1" cx="46" cy="15.89" r="1.03"/>
<circle class="st1" cx="29.95" cy="49.03" r="1.03"/>
<circle class="st1" cx="32.15" cy="75.3" r="2.2"/>
<circle class="st1" cx="42.45" cy="129.52" r="2.52"/>
<circle class="st1" cx="112.5" cy="170.44" r="2.87"/>
<circle class="st1" cx="139.99" cy="146.01" r="1.01"/>
<circle class="st1" cx="181.4" cy="165.97" r="1.61"/>
<circle class="st1" cx="233.85" cy="138.86" r="0.86"/>
<circle class="st1" cx="334.8" cy="162.53" r="1.83"/>
<circle class="st1" cx="422.51" cy="107.15" r="1.49"/>
<circle class="st1" cx="27.54" cy="163.45" r="0.92"/>
<circle class="st1" cx="13.2" cy="94.75" r="1.25"/>
<circle class="st1" cx="6.68" cy="7.75" r="0.69"/>
<circle class="st1" cx="573.4" cy="128.5" r="1.5"/>
<circle class="st1" cx="615.67" cy="30.5" r="2.5"/>
<circle class="st1" cx="743.12" cy="22" r="2"/>
<circle class="st1" cx="739.87" cy="94.75" r="1.25"/>
<circle class="st1" cx="736.99" cy="142" r="5.5"/>
<circle class="st1" cx="833.55" cy="46.38" r="1.63"/>
<circle class="st1" cx="884.66" cy="11.65" r="3.21"/>
<circle class="st1" cx="932" cy="61" r="1"/>
<circle class="st1" cx="1253.55" cy="362.89" r="1"/>
<circle class="st1" cx="954.16" cy="116.46" r="2.54"/>
<circle class="st1" cx="615.81" cy="163.33" r="2.64"/>
<circle class="st1" cx="519.73" cy="170.44" r="2.87"/>
<circle class="st1" cx="519.73" cy="224.9" r="2.87"/>
<circle class="st1" cx="503.32" cy="315.7" r="2.87"/>
<circle class="st1" cx="427.82" cy="168.18" r="3.82"/>
<circle class="st1" cx="465.9" cy="76.4" r="1.1"/>
<line class="st3" x1="139.99" y1="146.01" x2="146.32" y2="116.21"/>
<polyline class="st3" points="226,22 200,60 262.59,46.21 "/>
<polyline class="st3" points="358.27,44.08 325,32 306.81,54.36 "/>
<polyline class="st3" points="434.5,50.5 422.51,107.15 365.5,89.5 "/>
<polyline class="st3" points="379.5,145.5 427.82,168.18 479.5,141.5 422.51,107.15 399.76,60 "/>
<polyline class="st3" points="690.5,54.5 739.87,94.75 736.99,142 681.5,124.5 "/>
<polyline class="st3" points="775,115 739.87,94.75 790,77 "/>
<line class="st3" x1="743.12" y1="22" x2="739.87" y2="94.75"/>
<circle class="st1" cx="349.48" cy="227.99" r="5.96"/>
<circle class="st1" cx="275.5" cy="247.57" r="2"/>
<circle class="st1" cx="394.03" cy="291.92" r="3.73"/>
<circle class="st1" cx="517.67" cy="351.02" r="4.93"/>
<circle class="st1" cx="379.5" cy="355.52" r="4.5"/>
<circle class="st1" cx="195" cy="342.09" r="3"/>
<circle class="st1" cx="106.82" cy="324.88" r="2.82"/>
<circle class="st1" cx="13.58" cy="218.68" r="6.22"/>
</svg>
