<?xml version="1.0" encoding="utf-8"?>
<!-- Generator: Adobe Illustrator 24.0.1, SVG Export Plug-In . SVG Version: 6.00 Build 0)  -->
<svg version="1.1" id="Layer_1" xmlns="http://www.w3.org/2000/svg" xmlns:xlink="http://www.w3.org/1999/xlink" x="0px" y="0px"
	 viewBox="0 0 912.5 657.4" style="enable-background:new 0 0 912.5 657.4;" xml:space="preserve">
<style type="text/css">
	.st0{opacity:0.16;fill:#B4B8BF;enable-background:new    ;}
	.st1{fill:#EAEEF6;}
	.st2{fill:#D3D8E0;}
	.st3{fill:#B4B8BF;}
	.st4{fill:#4D464D;}
	.st5{fill:#61605C;}
	.st6{fill:#394251;}
	.st7{fill:#02243D;}
	.st8{fill:#0C1C2C;}
	.st9{fill:#1D202F;}
	.st10{fill:#081D32;}
	.st11{fill:#0D1C2F;}
	.st12{fill:#03182B;}
	.st13{fill:#03081B;}
	.st14{fill:#021A32;}
	.st15{fill:#0C2F45;}
	.st16{fill:#022B3F;}
	.st17{fill:#081A2E;}
	.st18{fill:#022038;}
	.st19{fill:#001E33;}
	.st20{fill:#232C4D;}
	.st21{fill:#5D4843;}
	.st22{fill:#0C2038;}
	.st23{fill:#323B4C;}
	.st24{fill:#0C2343;}
	.st25{fill:#213349;}
	.st26{fill:#9A8982;}
	.st27{fill:#333647;}
	.st28{fill:#32323A;}
	.st29{fill:#0F3049;}
	.st30{fill:#161516;}
</style>
<g>
	<path class="st0" d="M346,540c0,0,85,19.1,204-30.2c55.9-23.1,127.5-171.5,180-136.8c124,82,128.4-15.4,182.5-6l1.3,290.4H306
		L346,540z"/>
	<path class="st1" d="M1.3,395c0,0,247.8,22.5,504.3,180.2L574,622l-28,35.4H2.3L1.3,395z"/>
	<path class="st2" d="M61,175.8c0,0-8.1,37.4-3.1,39.5l0.7,21c0,0-2.3,15.6,0,33.6s-2.3,31.5-2.3,31.5l-4.1,31.1
		c0,0-4.2,34.9-14.2,46.7s-15.8-37.4-15.8-37.4l-1.9-11.4c0,0-10.3,1.3-20.2-21l1.3,24.4l15.1,32.4c0,0-10.4-9.3-12.5-7.6
		s0,6.3,0,6.3s4-5,10.6,7.6c0,0,2.2,3.1,4.6,3.8c0,0,4.3,12.4,4.8,13.2c0.5,0.8-5.5-7.9-5.3-9.3s-4.7-2-4.7-2s-3.6,0.9-4.4-3.5
		c0,0-2.6-1.6-4.8,0.4L4,375.4v2.4c0,0,2.8-0.4,2.8-1c-0.1-0.6,1.1,2.4-0.3,5s-1.1-0.4-1.1-0.4s1,3-0.9,3.1l-0.4,3
		c0,0,1.7-2.5,2.8-2.3c1.2,0.2,1.3-2.9,1.3-2.9l0.8-4.4c0,0-0.4-1.2,2.7,2.2c0,0,2.1,1.2,2.1,0.5s-0.3,1.5-0.3,1.5s3.9,0,6.2,5.2
		s5.6,9,7.7,10.5s2.4,12.6,2.4,12.6l0.2,11.9l-0.4,1c0,0,1.4,0.2-5.6,2.2c0,0-1.2,1.5-2.4,2.1c-1.2,0.6-4,4.6-5.5,4.3
		c0,0-1.1,3.8-1.7,4.3s4,36.2,3.1,37.4s-1,3.8-1,3.8s-4.8,1.3-5.9,3.4S9,484.4,9,484.4L7,507c0,0,3.8-24.4,4.9-24.1s3.5-2.6,3.5-2.6
		s3.2-1.1,3-3.4s-2.8-39-2.8-39s0.8-3.6,3.5-5.8s6.1-4.8,6.1-4.8s4.7-1.5,4,1.8s0,10.2,0,10.2l-1.4,138.3c0,0-6.9,0.6-8.5,5.8
		s-6.1-2.5-6.1,0l-4,0.7l-4.9,0.6h-2v72.9h911.5V464.8c0,0-445.8,126-482.6,126s-88.1,40.4-119.9,25.8s-45.1-11.2-74.8-19.1
		S167.7,556,142.1,556s-90.2,4.5-90.2,13.5s3.4-131.6,1.8-134.6c-1.5-3,6.2-17.6,6.2-17.6s22.5-20.2,23.4-21.9
		c0.8-1.7,16.7-2.1,16.7-2.1s10-0.3,10.8-0.8c0.8-0.6,6.4-2.2,5.9-4.2s12.3,0,13.8-3.6s-0.5,0.3-11.8,0.3c0,0-4.4,1.1-5.4,2.8
		s-27.9,2.9-27.9,2.9s5.4-26.2,3.8-26.5s5-13.5,4.7-15.1c-0.3-1.7,12.5-4.2,16.3-10.9s15.9-6.2,17.7-3.9c1.8,2.2,14.9,2.5,19.5,2.3
		c4.6-0.3,37.4,9.5,45.1,8.7c0,0,22,8.7,24.9,9.3c2.8,0.6,26.9-2.5,27.2-8.4s15.1-2.2,15.1-2.2s11.8-2.8,15.4,2s1.8,10.1,1.8,10.1
		l-2.6,7.6c0,0-6.4,10.6-6.9,14s-4.7,14-4.5,19.1c0.2,5,4.5,18.2,4.5,18.2s-3.8-13.5-2.6-20.5c1.3-7,7.2-26.9,9.5-27.2
		s11.3,4.5,11,14.3c0,0,2-5.4-3.6-14.3s-2.3-18.2-2.3-18.2s13.1-5.9,21.3,8.4c0,0,2.8,6.5,3.1,14.9c0,0,6.1,10.9,13.3,12.2
		s12.3-6.6,12.3-6.6s-5.9,5.6-10.5,4.2s-12.3-5.6-12-8.7s-4.6-22.1-8.5-24.7c-3.8-2.5,9-12.9,9-12.9s9-8.7,10.3-14
		s3.6-14.6,3.1-25.5s4.9-25.5,4.9-25.5l-4.4,7.6l-2.6,14.6l-0.5,15.1c0,0-0.3,9.3-1.5,12s-7.2,10.1-7.2,10.1s-14.9,11.2-14.6,13.7
		s-15.9,1.4-15.9,1.4s-1.8-6.5-11.8-5.9s-9.7-0.6-7.2-4.8c2.6-4.2,9.2-15.7,8.5-28c0,0-4.9-9-11.8-18.5c0,0,2-23.5-6.7-21.9
		c0,0-1.8,2-5.6,4.5c0,0,5.9-3,5.8-3.7s2.8,0.3,2.8,0.7s1.6,0.8,2.9,6.9c1.3,6.1-1.4,12.4-0.5,13.8c0.9,1.5,3.2,4.4,3.2,4.4l3.3,5.1
		l2.6,3.5l0.7,2.5l0.4,1.6c0,0-1.8-2-4.4-2.1c-2.7-0.1-5.4-2.7-6.1-3.5s-3.9-2.1-3.9-2.1s-4.1-7.8-4.1-9.9s-1.1-3.3-1.5-7.6
		s-0.7,2.8-0.7,2.8l0.9,3.3v2l2.5,5.7c0,0,3.8,4.5-1.6,2.3c0,0-1.8,0.1-2.6-0.6c0,0,0.6,1-1.2,0.4c0,0-2.5,1.5-4.2,0.8
		c0,0-2.1-1.8,0.1,0.9c0,0,3.2,0,3.7-0.5s2-0.4,2-0.4l2,0.5l2.4,0.2c0,0,1.7,0.9-1.5,0.8c0,0,2.7,0.5,3.6,0.5s1.8,1,1.8,1
		s3.7,1.9,3.7,2.3s1.7,1.9,2.5,1.8s4.7,1.4,4.7,1.4s2.6,1.5,2.8,2.1s-0.5,5-0.5,5l-0.1,3.4c0,0-1.4,5-1.1,5.5
		c0.2,0.5-0.5,0.4-0.5,0.4s0.5,1.1,0.1,1.7s-2.3,4.1-2.3,4.1s-0.9,4.3-2,5.2l-2.6,5.5c0,0-7.9-0.5-10.3,1.5s-3.6,3.4-3.6,3.4
		s-1.1,5-16.3,1.5c-15.3-3.5-23,0.3-23,0.3l-5.5-2.8c0,0-3.3-0.2-4.9-1.3c-1.7-1.1-7.6,0.9-9.7-2c0,0,1.2-1.8,1.7-1.7
		c0,0-1.8,1-3.2,1.3s-4.8,0-5.4-0.4c-0.6-0.4,1.8-1.3,3.9-4.3c2.1-2.9,3.1-5.3,3.1-5.3s1.4-1.6,2.4-2.5s2.9-2.4,4.6-2.1
		s7-0.5,7.9-0.8s6.5-1.9,7.3-2.6s5.5-3.5,5.5-3.5l4.2-2.4l-2.1,0.7c0,0-7.9,5.8-8.6,4.2c-0.6-1.6,2.5-7.7,2.5-7.7l0.6-1.8
		c0,0-2.6,3.7-3.2,5.3c-0.6,1.5-1.4,4.8-1.4,4.8s0.3,2.5-13.1,2.4l2.3-2.6l4.4-3.5l2.7-3.8l2.6-3.7l1.2-1.9c0,0,0.6-0.4,1.3-0.8
		s1-1.5,1-1.5s-0.8,0.8-1.3,0.8s-1.9,1.7-1.9,1.7l-2.1,2.9l-1.7,1.7l-1.9,2.5c0,0-0.3,1.3-1.1,1.8c-0.9,0.4-2.3,1.8-2.3,1.8
		l-2.1,1.5l-3,3.4l-2.8,1.8l-3.3-2.7c0,0-2.1-0.1-3.6-4.1c0,0-1.9-3.4-4.3-4.3c0,0,2.6,3.1,2.9,3.6c0.3,0.6,1.7,3.7,1.7,3.7l2.2,1.7
		l2.5,1.6c0,0,1,0.8,1.1,1s-3.6,4.6-3.7,5.4s-1.4,0.8-1.4,0.8s1,0.8-0.8,2.9c-1.9,2.1-3.7,3.3-3.7,3.3L167,336
		c0,0-13.7-1.8-14.5-4.8c0,0,3.8-5.2,4.7-5.3c0.9-0.1-0.4-1.9,1.2-2c0,0,1.3-0.4,1.5-1.8s1-3.2,1.7-2.7c0.6,0.6,1-2.3,1-2.3l5.1-3.2
		c0,0,5.1-3.6,5.6-4.3c0.5-0.7-0.1-1-0.1-1s-5.3,4.3-6.5,4.8c-1.3,0.4-3.5,2.2-3.5,2.2s-2.8,2.5-2.8,2.9s-0.9,0.2-0.8,1.2
		c0,0-1.7,2.1-1.4,2.6c0,0,0,1-1.2-0.5c0,0-0.2,0.5-0.3,1.9s-6,8.5-5.3,5.4c0,0-0.2,1.1-4,1c0,0-1,0-1.2-0.2s0.3,2.3-5.5,2.1
		s-11.6-3.1-11.6-3.1s-6-3-12.1-0.3c-6.2,2.7-7.5,2.3-13.1,7.9S93,341.2,93,341.2s-4,1.8-4.4,5.4s-2.7,4.6-2.7,4.6l-3-0.1l-3.3-9.1
		l-5-6.8l-3.7,8l3.4,4.7c0,0,3.8,12,5.8,13.7c2,1.8,0.1,10.8,0.1,10.8s-1.6,11.8-2,12s-5.8,9.2-5.8,9.2l-11.8,9.2
		c0,0-3.3-2.3-3.7-5.4s2.3-18.1,2.7-18.1s7.9-26,7.9-26l2.8-8.2l6.5-15l8.2-18.7l11.2-19c0,0,6.1-11.1,7-14.5s4.7-11.1,4.7-11.1
		l12-23.7c0,0,1.8-3.1,4.3-6.2c2.5-3.1,5.6-6.4,8.2-6.6c5.3-0.6,19.7-13.5,19.7-13.5l17.3-13.3c0,0,13.3-8.4,16.7-7.6
		c0,0,12.6-3.2,16.4-7.1c0.5-0.6,0.9-1.1,1-1.7l9.5-9.8c0,0,14.2-22.3,18.6-21.6c0,0,2.1-0.7,3.5-2s3.5-5.8,5.9-4.6
		c0,0,6.9-5.3,11.3-4.8c4.4,0.6,7.6-0.8,10.7,0.7s16.5,2,16.5,2s6.1-2,6.5-0.6s6.7-2.1,6.7-2.1s1.5-2.6,8.6,1.3
		c7,3.9,9.9-0.8,9.9-0.8s3.6,0.3,12.7-2.4c0,0,14.4,2.7,19.5-1.5c0,0,13.8-3.9,15-4.1s0.6-2.5,0.6-2.5l9.7-8.6c0,0,1.4-4.1,4.6-3.6
		s11.5-1.4,11.7-2.2s7.8-2,9.1-1.1s12.7-3.1,12.8-4.8c0.1-1.7,3.8-7.6,7.4-7.7s7.6-7.8,7.6-7.8s-4.2,6.3-7,6.3s-7,4.3-7,4.3
		l-2.2,4.2c0,0-5,4.9-10.4,3.4s-5.5,1.3-9.4-1c0,0-4.2,6.4-10.1,2.5c0,0,7.4-12.6,7.6-14.4c0.1-1.8,8.8-7,8.8-7l12.3-4.5l3.6-3.2
		l11.8-7.6l-5.3,1.8l-5.5,3.9l-4.7,2.4c0,0-0.3,1.3-3.8,2.7s-7.8,2.2-7.8,2.2l-5.8,3.1l-3.8,2.9l-3.7,5.1l-1.3,3.4l-3.1,6.3
		c0,0-2.3,4.3-4.4,4.5s-13.3,12.6-13.3,12.6s-0.5,2.1-14.4,6.4s-18.7,0.8-18.7,0.8s-9.6,3.1-12.8,1.8s0.3,2.2-8.5,1.3
		c-8.7-1-8.2-2.5-8.8-2.8c-0.6-0.3-2.4-1.5-5,1.7s-25.1,0.6-25.1,0.6s-5.1-0.8,1.7-7.4s4.5-2.8,12.3-10.1
		c7.8-7.3,17.8-11.8,17.8-11.8l18.5-10.7c0,0,18.1-9.9,17.8-11.3s12.2-5.6,12.2-5.6l8.5-3.8c0,0,6.4,1.8,7.2-3.8s4.9-9.5,4.9-9.5
		l4.1-6.6c0,0-8.7,8.5-9.5,10.2s1,3.4-3.6,4.8s-12.6-0.3-17.4,4.2S310,102.2,300,103.6c0,0-41.5,27.5-44.6,32.8
		c0,0-19.7,3.9-30.8,16.5s-24.1,28.6-24.1,28.6s-5.4,3.4-20.5,7.9c0,0-22.3,13.5-27.7,18.5s-14.9,9.3-17.4,9.3s30-49.3,39.7-46.3
		c0,0,24.9-7.9,34.3-0.3s25.6,6.2,25.6,6.2s17.7,4.2,20,5.6c2.3,1.4,33.6,9.8,35.6,16.3c0,0,17.2,12.6,22.8,24.7
		s12.6,16.8,12.6,16.8s17.2,23.8,16.4,25.5s12.6,13.5,12.6,13.5s11.3,15.1,11.3,16.5s6.7,6.7,6.7,6.7s6.7-0.8,9.7,1.7
		c0,0,4.1,0,4.6,1.1s4.9,0.3,7.9,1.7s7.2-9.8,7.2-9.8l5.6-5.6l6.4-0.8c0,0-4.9-0.6-5.9-0.6s-4.1,2.5-4.9,3.1s-1.3-0.3-4.9,6.7
		s-5.1,4.2-5.1,4.2s-10.8-1.7-13.8-2.8c-3.1-1.1-6.9-1.7-6.9-1.7l-4.1-5.6l-2.6-3.9l5.9-1.7h5.6c0,0,8.5,5.3,11.8,3.4s4.9-5,4.9-5
		s-3.3,2.8-4.9,2.8s-4.9,0-4.9,0l-3.6-1.4c0,0,6.4-0.8,9-2.8s9.2-2.5,9.2-2.5l8.5-3.4l9.5-5.3l5.4-6.5c0,0-8.2,8.4-13.8,8.4
		c0,0-5.9,3.9-12,5.3s-8.7,2.5-8.7,2.5l-7.9,1.7c0,0-15.4,1.7-14.6,3.1s-2.4-1.8-14.6-17.7l-5.6-5.5c0,0-7-11.9-10.1-16.4
		s1.7,1.8-3.1-4.5c-4.7-6.3-15.1-18.5-15.1-18.5S306.5,209,301,205s-4.9-4.1-4.9-4.1s-10.2-10.3-13.3-12.1s-26-4.7-29.4-11
		c0,0-22.7-3.2-30.2-10.6c-7.5-7.5-22.9-2.1-22.9-2.1s-20.8-0.4-21,1.1s-8.9,3.2-1.2-11.4s10.6-15.5,10.6-15.5l8.9-7.5
		c0,0,13-10.3,13.7-12.7s21.7-15.8,21.7-15.8s24.2-5.2,29.2-5.1c5,0.2,45.8-8.2,45.8-9s22-2.2,22-3.9s40.6-6.5,40.6-6.5
		s17.7-3.3,20-5.8c2.3-2.6,3.6-8.4,3.6-8.4l-0.5-3.2c0,0-0.5,8-4.6,9.4s-23.1,7.3-25.4,6.7s-45.9,9-48.7,7.8s-22,4.2-22,4.2
		l-52.5,9.3c0,0-17.8,2.6-19.5,6.4c-1.6,3.9-10.3,11.2-10.3,11.2l23.1-39c0,0,12.3-9.7,10.3-12.9c0,0-5.6,7.1-7.4,8.4
		c-1.1,0.8-3.4,2.5-5.9,5c-1.5,1.5-3.2,3.3-4.8,5.3c-4.4,5.6-14.4,23-14.4,23s-5.1,12.9-9,13.7c-3.8,0.8-11.5,7.8-11.5,7.8
		s-18.2,19.9-19.7,25.2s-10,15.1-8.5,17.4c0.5,0.7-3,5.4-8.1,11.6c-11.2,13.8-30.2,35.3-32.7,39.9c-3.6,6.7-47.7,86.3-47.7,86.3
		l4.1-41.8c0,0,9.2-6.5,10.5-9s7.2-12.9,7.2-12.9s8.2-8.7,13.3-4.8s20,8.4,20,8.4s18.7,10.4,20,10.4s10.3,4.5,8.7,10.9
		c0,0,25.4-0.8,27.7,15.7c0,0,12.3,7.9,12.6,10.6s14.6,15.4,14.6,15.4s1.6,1.9,4,4.6c6.1,6.9,19.5,13,19.8,14.4
		c0.5,1.8-11-16.7-15.4-21.7c0,0,6.1-0.8,6.7,1.4c0,0,1-1.1,5.9,0.6s6.9,2.2,6.9,2.2s10,9.8,11.5,7.9c0,0-9.7-5.9-12.6-10.9
		c0,0,10.3-4.2,10-5.9c-0.3-1.7,8.2-7,8.2-7l-3.6,0.6c0,0-8.7,10.6-11,9c0,0-1,3.4-8.2,1.7c-7.2-1.7-18.4,4.2-18.4,4.2
		s-13.4-15.7-26.1-26.9c0,0-6.7-12.9-15.6-14.9c-9-2-14.4-3.1-14.4-3.1l-1.5-5c0,0,14.1,3.1,20.5,2s13.1,0.3,15.1-3.6l12.6-1.4
		c0,0,13.6-3.4,23.8-7.6c0,0,22-1.7,25.1-10.1c0,0,21.5-7,26.6-3.4s16.1-3.4,17.2-7.6c1-4.2,0.5-14.3,0.5-14.3l-1.3-6.4
		c0,0,0.8,13.7,0.3,13.7s-1.8,7-1.8,7s-4.6,5.1-6.9,5.3c-2.3,0.3-9.5-0.3-15.9-1.4s-15.1,3.1-15.1,3.1s6.1-16.3,6.7-19.3
		s1-10.4-2.6-18.8c-3.6-8.4-6.1-13.5-6.1-13.5l3.1,12.6l4.1,10.1c0,0-3.1,25.5-8.2,29.4s-6.7,10.4-22.8,10.1c0,0-19.7,13.5-24.3,6.7
		c0,0,1-6.2-0.5-16.3c0,0,5.1-14,1.3-18.8c0,0,0.3,15.1-2.6,16.3c0,0-3-3.3-6.7-6.8c-3.9-3.8-8.5-8-10.8-8.9
		c-4.4-1.7-10.3-15.7-11-16.8s3.6,10.9,3.6,10.9l8.7,10.1c0,0,8.2,3.9,8.7,7s6.9,4.2,7.7,11.2s-0.5,11.2-0.5,11.2
		s-15.6,3.1-16.7,6.2c-1.1,3-9.6-1-9.6-1s-17.9,2.9-22-2.5c0,0-20-6.7-21.5-10.1c0,0,4.2-1.8,5.8-0.3c1.5,1.5,9,3.1,9,3.1
		s11.5-0.1,11.5-1s5.5-2.9,5.5-2.9s4-0.7,6.3,1c0,0,5.1,0.4,5.9,2c0.8,1.5,6.1,3.2,6.1,3.2s4.5,1.1,5.5,0.7c1-0.4,5.4-0.6,6.8-1.5
		c1.4-1,4.7-0.7,4.7-0.7s15.3-4.8,18.4-11.5c0,0-7.2,11.4-11.5,10.4c-4.4-1-11.8,0-11.8,0s-4,3.2-7.8,2.1s-9.5-3.9-9.5-3.9
		l-12.3-3.6c0,0-5,2.2-7.3,2.9s-4.9,2.5-9.9,0.7s-10.8-5.8-15.9-3.4c-5.1,2.4-14-4.3-14-4.3l17.9,1c0,0,7.4-0.4,9.9,2.1
		c2.4,2.5,11.9,2.5,13.8,1.3c1.9-1.3,10.4-4.1,10.5-5.6s3.5-4.1,6.3-3.5s7.4-0.4,6.8-1.7s9.9-1.1,9.9-1.1s9.6-2.8,9.6-3.9
		s5.3-5.8,6.5-5.1s9.6-11.4,9.6-11.4l9.6-3.5c0,0,9.5-1,9.5-2.4s-5.8,0.6-5.8,0.6s-2.3,1.1,0-6c0,0-0.6-2.7,0.4-2.8s0.4-3.6,0.4-3.6
		l2.1-1.7c0,0-1.3-1.1-2.9,1.1s1,0-0.6,2.4c-1.7,2.4-0.8,5.5-0.8,5.5l-1.3,4.1c0,0-2.1,2.8-10.5,4.9c0,0-8.5,12.3-11.1,11.1
		c0,0-4.2,3.5-5.8,5.3c-1.5,1.8-9.2,4.2-18.8,3.6c0,0,5.5-24.4,6-24.4s0.1-4.1,2.6-6s4.2-8.4,4.2-8.4s10.3-3.4,9.9-4.3
		s7.6-8.4,9.4-9.4c1.8-1,5.5-3.1,5.5-3.1s17.3-5.6,17.2-6s5.8-2.5,6.4-5.3s3.3-7.9,3.3-7.9s-5.3,9.1-8.2,10.2s-3.6,3-9.9,4.1
		s-17.6,13.6-20.4,13.7c-2.8,0.1-6,3.8-6,3.8l-5.9,2.4c0,0-3.5-10.9-3.1-14.7s0.1-10.1-3.5-20.2c-3.6-10.1-11.1-7.6-11.1-7.6
		s4.4,0.4,4.4,1.3s1.1-0.6,2.2,1.7s1.7,0.1,2.8,3.1s2.2,5.9,2.2,5.9l0.1,2.9l1,2.1l0.6,5.9l0.3,6.2v4.3c0,0,2.6,8.6,1.1,11.2
		s-1.4,3.5-1.4,3.5s-4.2,5.9-4.6,8.8s-3.6,11.9-3.6,11.9s-0.9,15.6-7.2,15.8c-6.3,0.3-15.4,8.6-15.4,8.6s-10.9,4.9-17.2-1.7
		c0,0,3.3-1-24.9-1.7c0,0-20.4-8.7-29.5,4.5c0,0-15.9,12.5-17.8,14.6c0,0-1.2-1.8,0-2.7s21.1-15,19.7-17.8c0,0,4.7-5.2,4.2-9
		s3.7-7.1,3.7-7.1s2.1-2.9,3.2-2.4c1.2,0.6,1.8-6.2,2.6-5.9s2.1-4.2,5.1-0.4s9.1,3.8,9.1,3.8l2.7,1.4c0,0,8.8-4.6-1.2-4.5
		c-9.9,0.1-7.9-0.8-7.4-4.5s-0.6-4.8,0.4-6.3s9.1-10.4,9.1-13.9c0,0,6.7-6.6,11.8-6.7c0,0,6.3-6,5.8-8.3c0,0,6.3-6.4,8.3-9.7
		s5.4-12.6,5.4-12.6l4.6-14.9c0,0-3.2-11.8,18.7-32.7c0,0,6-4.3,9.7-3.4c0,0,2.3-4.2,4.5-4.6s-1.6-0.9-4.2,1.8
		c-2.6,2.8-7.1,2.8-7.1,2.8s-5.8,2.5-9.5,7.3s-8.7,11.8-8.7,11.8s-4.4,8.1-5.6,14.6c-0.3,1.6-0.4,3.1-0.3,4.3c0.1,0.5,0.1,1.1,0,1.7
		c-0.8,7.4-10.3,23.4-10.3,23.4l-2.8,4.1c0,0-3.1-0.4-4.2,5.2c-1.1,5.6-8.3,7.6-8.3,7.6s3.4-9.9,6.5-10.5s12.4-15.4,12.6-16.4
		c0.1-1,7.2-18.2,7.6-17.7c0.4,0.6-2.2,0.6-2.2,0.6s-12.6,30.6-18.8,31.8c-6.3,1.3-8.6,13.7-8.6,13.7s-2.1-2.9-12.9,15.6
		c0,0-4.6-30.6-2.8-32.2c1.8-1.7,1.4-7,2.3-7.3s4.5-8.7,3.7-10.5s7.6-4.8,7.3-6.2s3.7-3.9,4.4-3.4s-2.3,0.6-0.9-1.3
		c0,0-1.4-6.2-0.3-7.3c1.1-1.1,2.4-13,1.9-18.1s-0.8,5.5-0.8,5.5s-0.9,11.1-2.2,11.1s-0.3,8.6-0.3,8.6s-0.8,1.7-3.1,3.5
		s-9.1,3.8-8.7,11.9c0,0-3.3,5.5-3.3,6.9s-2.7,11.2-2.2,12.2s2.9,26.5,1.5,27.3s-2.6,9.1-1.9,9.5s-8.5-0.7-9.3,6.4
		c-0.9,7.1-1.7-12.8-1.7-12.8s0.6-9.5,1.8-9.4s5.9,1.8,6.2,0.8c0.3-1,3.1-3.1,4.2-2.7s4.5-2.2,6.4-0.8c1.9,1.3,8.5,1.7,8.5,1.7
		s4.5,0.3,4.5,0.8s2.4,2.7,3.1-1.3c0.6-3.9,4-4.2,4-4.2l5.8-2.8l3.8,0.4c0,0,0.1-2.5-6.7-1.1c0,0-0.9,1.4-6.5,4.1
		c0,0-1.1,2.9-2.3,3.9s-6.5-1.8-6.5-1.8s-5.9-2.1-10.4-2s-8.5,4.2-11.8,3.5s1.4-15,1.4-15s1.8-12.3,1.7-13.5c-0.1-1.1,4-10.9,4-10.9
		s11.4-21.4,10.6-23.3s-1.7-12.7-1.7-12.7s0.7-11.4-0.2-11.8c-0.8-0.4-5.8-11.8-5.8-11.8s1.5,7.3,1.9,12.2s1.9,15.9,1.9,15.9
		s-1.5,16.1-3.8,16.4s-6.5,16.3-6.5,16.3s-7.3,29.9-7.7,32.7s-2.2,7.3-2.2,7.3s-17.9-10.8-21-11.4c0,0,8.9,5.4,6.7,5.2
		c-2.2-0.2,10.8,5.6,10.8,5.6s5.6,5.1,2.9,6.2c-2.7,1.1-16.1-8-16.1-8s15.2,9.2,15,11s3.9,12.3,1.5,15.3s-4.3,12.3-4.3,12.3
		s-13.3,17.8-20.3,19.1L76.1,220c0,0,3.8-27.1,2.2-32s5.8-16.6,5.8-16.6s15.4-20.7,14.7-26.9s16.7-37,16.7-37S127.2,95,132,95.3
		c4.8,0.4,13.7-3.6,15.7-0.8s11.4,3.4,13.8,3.9s4.8-6.3,4.8-6.3s9.2,0.6,10.1,3.9c0.9,3.4,13.5-3.9,13.5-3.9l11.8-9.3
		c0,0,7.5,0,9.6,1.9s4.6,4.1,4.6,4.1s5.3-5.9,6.8-7.2c1.5-1.3,3.9-2.6,3.9-2.6s-6.1,0.9-6,1.5c0.2,0.6-15.4-1.2-17.4,0.1
		s10.1-9.3,10.1-9.3l8.9-12.6L213.4,69l-9.9,5.8c0,0-3.4,7.5-10.1,11s-7.5,7.7-13.5,6.3s-16.4-5-19.3,0.4
		c-2.9,5.4-14.2-2.4-14.2-2.4l-20.8,3.7l-2.4-2.1l6.1-16.3l4.6-6.3c0,0-1.1-18.7,3.5-24.2s7.3-24,10.8-24s3.1-21,3.1-21
		s-3.1,19.8-7.7,20.2S134.8,37,134.8,37l-6.9,27.3l-7.7,14.9c0,0-10,30.9-16.9,32.2S86.4,156,86.4,156l-6.2,5.5c0,0-1.2-27.8,4.6-32
		c5.8-4.2,9.1-37.4,9.1-37.4l13.6-28.2c0,0,7.3-18.1,10.4-21.4c3.1-3.4,6.5-7.2,10.4-5c3.8,2.1,16.9,5.9,16.9,1.7s5.8-2.1,15.4-1.3
		s26.5-7.1,26.5-7.1s-6.9,2.5-14.6,2.1s-9.5,3.5-19.2,0.4s-11.5,8.8-25.4-1.7L139,10.9c0,0-14.6,20.2-22.7,22.7c0,0,5.4-0.8-1.2,6.7
		S98.3,67.6,98.3,67.6s-11.9,34.2-16.1,41.3c-4.2,7.2-6.5,17.2-9.2-18.5c0,0-5.8-17.5-4.2-22.8s-8.1-21.7-1.2-27.2
		c0,0-5-0.3-4.6,13.5c0.4,13.7,2.3,20.6,2.3,20.6s4.6,19.3,4.6,21S63,86.2,62.2,82s-5-11.2-3.5-14.4s-8.5-12.5-8.8-18.8
		S53,13.5,53,13.5s-10.4,40.4-5.8,45.8s12.3,26.5,12.3,26.5S68,100.1,68,103c0,2.9,3.8,12.6,3.8,12.6s-7.8-10.8-9.7-18.4
		s-7.7-18-7.7-18s-8.4-24-11.8-24.4s-0.8-12.3-0.8-12.3s-7-13.5-8.2-22c-1.2-8.6-2.2-13.3-2.2-13.3s0,14.4,0.9,14.8
		c0.8,0.4,3.9,12,3.9,12l3.1,6.5V49c0,0-0.2,7.8,1.4,7.8c1.5,0,6.2,6.9,6.2,6.9L50,73.9c0,0-6.8-0.6,0.3,5.4L56,92.6
		c0,0,6.2,11.2,0.8,12.5S37,97.4,34.1,84.7S23.5,65.6,23.5,65.6S16.7,61.3,10.2,55S3.9,40.4,3.9,40.4S3.7,49.8,6.1,54
		s15.4,13.5,15.4,13.5S30.3,79.7,31,86s8.5,17.2,11.6,19.4c3.1,2.2,17.1,1.7,17.1,3.6S70,122.1,70,122.1s2.9,3.2,2.9,9.5
		c0,6.3-3.4,24.1-3.4,24.1s-3.3,12.9-6.5-0.8s-4.6-26.5-9.6-30.1s1.9-16.1,1.9-16.1s-5.6-2.8-3.9-8.6c1.7-5.8,2.2-6.7,2.2-6.7
		s-1.6,4.6-2.8,4s0.5-6.3,0.5-6.3S48.6,90,48.7,95c0.2,5.1-3.1-4.7-3.1-4.7s2,7.7,0.8,8.4s2.2,2.8,2.2,2.8s0.5,12.2-1.4,18.1
		c-1.9,6,2.6,7.3,2.6,7.3s-14.2-18.3-20.5-22.1c-6.3-3.7-17.9-18.5-17.9-18.5l-7.6-7.2v5.6c0,0,5.8,3.1,4.8,5.1s-4.8-1.4-4.8-1.4v9
		c0,0,14.3,3.4,19.9,12.3S44.6,131,44.6,131s5.6,6.4,6.9,9.8C52.8,144.2,61,175.8,61,175.8z"/>
	<path class="st2" d="M76,146.3c0,0-7.1-7.1-19,6.8c0,0-3.1,1.4-6,7.1c0,0-15.5-7.1-26,2.5c0,0-5-12-19.6,4.6H3l0.1,25
		c0,0,3.4-23,4.6-23.9s14.3-11.8,12.9,0c0,0-7.1,8.1-7.1,10.1s-2.9,8.2-2.9,8.2s7.6-9.9,9.3-9.9s7.1,5.6,2.9,18.6s5.2-6.2,5.2-6.2
		s1.5-10.6-3.6-15s8.3-9.6,8.3-9.6s14.8-2.8,14.8-0.3s3.1,9.3,7.1,2s10.2-19.5,19-15S79.9,148,76,146.3z"/>
	<path class="st3" d="M1.3,301.1c0,0,16.8-28.2,14.7-40.6s3.1-5.4,3.1-5.4s2.6-1.4,0-5.9s6-7.3,6-7.3s3.8-0.9,3.6-7.3
		s12.2-13.3,12.2-13.3s12.4-5.6,14-7.9s9.5-16.4,9.5-16.4s2.9-9,7.1-9s6.4-7.9,6.4-7.9l3.3-8.5c0,0-10,13.5-14.1,15.8
		c-4,2.3-9,12.1-9,12.1s-1.9,9.6-11.4,14.1s-16.2,12.1-16.2,12.1l-4.3,3.9c0,0,6-28.2-5.2-33c0,0-6.4-19.2-7.9-33.3S7.9,130,7.9,130
		s-1.5-22.6-6.6-31.3v52.2c0,0,5.6,22.9,5.6,30.2s7.9,26.2,11,28.8s-3.8,24.3-3.8,24.3s-6.7,9.9-5.7,15.2s-7.1,18.1-7.1,18.1
		L1.3,301.1L1.3,301.1z"/>
	<path class="st4" d="M284.4,297.2c0,0,0.7,1.2,1.8,0.9c1.1-0.3,0-2.1,0-2.1S284.6,296.8,284.4,297.2z"/>
	<path class="st5" d="M285.5,294.9c0,0-1.4,1.5-0.9,2.3c0,0,0.9-1,1.6-0.8s0-2-0.6-1.7"/>
	<path class="st6" d="M298.2,307.6c0,0-1.3-19.3-10.4-15c0,0-2,0.3-2.6,2.6c0,0,1.7,1.8,0.7,2.9c0,0,0.1,5.2-2.6,7.6
		s3.6,3.5,3.6,3.5S300.1,309.3,298.2,307.6z"/>
	<path class="st7" d="M299.3,308c0,0-2-6.5-16-2.4c0,0-4,2-11.6,15.8c-7.5,13.8,19.1-5.9,19.1-5.9l8.5-4.9"/>
	<path class="st8" d="M282.9,336.3c0,0-0.7-0.5,2.1-5.2c2.7-4.8,2.7-4.8,2.7-4.8l2.6,3.3l-2.2,4.1c0,0-3.5,6.2-3,3.9L282.9,336.3z"
		/>
	<path class="st9" d="M294.6,327.7c0,0,0.3,7.8-7.7,4.5c-8.1-3.4,6.8-6.6,6.8-6.6"/>
	<path class="st10" d="M296.5,321.7c0,0,3.6,9.1-16.2,12.4C260.5,337.4,294.6,319.4,296.5,321.7z"/>
	<path class="st11" d="M273,339.9c0,0,8.6-4.8,10.2-10.3s-11.8,9.3-11.8,9.3L273,339.9z"/>
	<path class="st12" d="M276.8,333.6c0,0-13.2,27.9-17,21c0,0,3-11.9,9.2-18.3s7.8-7.2,7.8-7.2"/>
	<path class="st13" d="M254,352.9c0,0,4.7,6.9,20.4-19c15.7-25.9-11,7.1-11,7.1L254,352.9z"/>
	<path class="st14" d="M272.6,335.2c0,0-17.7,25.8-19.7,15.7c0,0-3.1,0.9,11.2-14.1c14.4-15,13.4-13.1,13.4-13.1
		S283.2,321.1,272.6,335.2z"/>
	<path class="st15" d="M284.5,328.1c0,0-5.3,6.4-12.2,7.1c-7,0.7,14.6-12.7,14.6-12.7"/>
	<path class="st16" d="M284.5,327.4c0,0-16.6,12.9-31.2,18.2c0,0-3.2-2.1,20.7-19.5S284.5,327.4,284.5,327.4z"/>
	<path class="st17" d="M263.4,335.6c0,0-21.5,18.2-3.1,6.5s20.5-14,20.5-14l-2.1-3.7C278.7,324.4,264.8,333.3,263.4,335.6z"/>
	<path class="st18" d="M267,330.3c0,0-10.7,12.3-1.3,8.1s11.1-8.9,11.1-8.9"/>
	<path class="st19" d="M273.6,332.5c0,0-3.3,3.7-4.5,2.8c0,0-4.3,3.1-3.1-1.7c1.1-4.8,3.4-5.5,3.4-5.5l4.7,2.2"/>
	<path class="st20" d="M279.2,344.6c0,0-2.7-1.5-2.8,1.9c0,0,1.2-2.7,2-1.1s0.8-0.6,0.8-0.6"/>
	<path class="st21" d="M283.2,343.3c0,0,0.8,0.8,1.5,0s0.2,0.7,0.2,0.7h1.6l0.5,0.2c0,0-0.6,0.9-1.4,0.8s-2.4-0.8-2.4-0.8
		L283.2,343.3L283.2,343.3z"/>
	<path class="st22" d="M288.8,343.8c0,0,1.5-0.3,2,0.8c0,0-1.6-0.7-1.8-0.4C288.7,344.5,288.4,344.2,288.8,343.8z"/>
	<path class="st23" d="M291.6,344.6c0,0,0.9-0.8,1.1,0.3c0,0-0.3-0.8-0.9,0"/>
	<path class="st24" d="M292.8,345.8c0,0,1.8-0.9,1.8,1.2c0,0-0.6-1.2-1.7-0.9"/>
	<path class="st25" d="M284.5,346.3c0,0-2-1.1-2.6,2.1c0,0,1.8-2.6,2.2-1.5"/>
	<path class="st26" d="M288.8,345.7c0,0,1.5-0.4,1.7-0.3s0.9-0.9,0.9-0.9s0.8,0.2,0.7,0.7c0,0,0.3,0.2,0,0.6
		c-0.3,0.3-2.2,0.6-2.2,0.6h-1.2"/>
	<path class="st27" d="M279.1,336.2l-0.2-0.6l-1.3,0.8c0,0,3.5,4.8,3.5,6.1c0,0,0.7,1.6,0.9,1.5c0.2-0.1-1.3,0.8-2.4,0.6
		s-1,0.9-1,0.9s0.4,1.1,1.6,0.3c0,0,0.6,0,0.6-0.3s0.1,0.1,0.1,0.1s2.1-0.4,2.5-0.7c0,0,2,1.5,3.3,0c0,0,3,0.1,2.7-0.4
		c-0.3-0.6-1.3-0.8-3.1-0.1c-1.8,0.7-2.5-1-2.5-1L279.1,336.2z"/>
	<path class="st28" d="M282.9,336.3c0,0,0.4,1.5,0.2,1.7s2.4,2.7,3.3,5.4c0.9,2.7-1.5,2.6-1.5,2.6l-1,0.8c0,0-0.2,2,1.1,0.6
		c0,0,1.2-0.3,2.9-0.7c0,0,2,0.6,2.1,0.4c0.1-0.1,1.1,0,1-0.2s0.4,0.3,0.7-0.2c0,0,1.8,0.6,1.3-0.4c-0.4-1-1.7-0.1-1.7-0.1h-1.1
		c0,0-0.7-0.2-0.8-0.1c-0.1,0.1-2.4-3.7-2.4-3.7l-1.3-2.6c0,0-1.1-1.3-0.7-2C285.7,337,282.9,336.3,282.9,336.3z"/>
	<path class="st29" d="M287.7,311.2c0,0,17.2-12,12.1,4.6c0,0-3,10.1-5.6,7.6c0,0-9.3,9.8-9.6,5.5l-0.7-1.2c0,0-10.7,6.3-11.3,4.5
		c0,0-2.4,0.8-2-0.6c0,0-9.1,0.6-3.9-5.2S283.4,308.9,287.7,311.2z"/>
	<circle class="st30" cx="285.9" cy="295.5" r="0.4"/>
</g>
</svg>
