<?xml version="1.0" encoding="utf-8"?>
<!-- Generator: Adobe Illustrator 24.0.1, SVG Export Plug-In . SVG Version: 6.00 Build 0)  -->
<svg version="1.1" id="Layer_1" xmlns="http://www.w3.org/2000/svg" xmlns:xlink="http://www.w3.org/1999/xlink" x="0px" y="0px"
	 viewBox="0 0 1366 95" style="enable-background:new 0 0 1366 95;" xml:space="preserve">
<style type="text/css">
	.st0{fill:#0F3049;}
</style>
<circle class="st0" cx="34" cy="16" r="2"/>
<circle class="st0" cx="74" cy="22" r="4"/>
<circle class="st0" cx="162" cy="25" r="3"/>
<circle class="st0" cx="188.5" cy="37.5" r="2.5"/>
<ellipse class="st0" cx="231.5" cy="44" rx="3.5" ry="4"/>
<ellipse class="st0" cx="297.5" cy="48" rx="3.5" ry="4"/>
<circle class="st0" cx="422" cy="50" r="2"/>
<ellipse class="st0" cx="474.5" cy="44" rx="3.5" ry="4"/>
<circle class="st0" cx="408" cy="24" r="2"/>
<circle class="st0" cx="361.5" cy="54.5" r="2.5"/>
<circle class="st0" cx="528" cy="42" r="2"/>
<ellipse class="st0" cx="561.5" cy="32" rx="5.5" ry="6"/>
<circle class="st0" cx="564" cy="70" r="3"/>
<circle class="st0" cx="621" cy="42" r="2"/>
<circle class="st0" cx="656.5" cy="37.5" r="2.5"/>
<circle class="st0" cx="658.5" cy="64.5" r="2.5"/>
<circle class="st0" cx="696" cy="20" r="4"/>
<circle class="st0" cx="743.5" cy="38.5" r="3.5"/>
<circle class="st0" cx="794" cy="30" r="2"/>
<circle class="st0" cx="774.5" cy="67.5" r="2.5"/>
<circle class="st0" cx="857" cy="17" r="3"/>
<circle class="st0" cx="856" cy="50" r="2"/>
<circle class="st0" cx="917" cy="18" r="4"/>
<circle class="st0" cx="967" cy="39" r="4"/>
<circle class="st0" cx="1035.5" cy="37.5" r="2.5"/>
<circle class="st0" cx="1100" cy="24" r="4"/>
<circle class="st0" cx="1085.5" cy="58.5" r="3.5"/>
<circle class="st0" cx="1191" cy="24" r="4"/>
<circle class="st0" cx="1258" cy="62" r="3"/>
<ellipse class="st0" cx="1297" cy="35.5" rx="3" ry="3.5"/>
</svg>
