<?xml version="1.0" encoding="utf-8"?>
<!-- Generator: Adobe Illustrator 24.0.1, SVG Export Plug-In . SVG Version: 6.00 Build 0)  -->
<svg version="1.1" xmlns="http://www.w3.org/2000/svg" xmlns:xlink="http://www.w3.org/1999/xlink" x="0px" y="0px"
	 viewBox="0 0 1366 768" style="enable-background:new 0 0 1366 768;" xml:space="preserve">
<style type="text/css">
	.st0{fill:#4D464D;}
	.st1{fill:#61605C;}
	.st2{fill:#394251;}
	.st3{fill:#02243D;}
	.st4{fill:#0C1C2C;}
	.st5{fill:#1D202F;}
	.st6{fill:#081D32;}
	.st7{fill:#0D1C2F;}
	.st8{fill:#03182B;}
	.st9{fill:#03081B;}
	.st10{fill:#021A32;}
	.st11{fill:#0C2F45;}
	.st12{fill:#022B3F;}
	.st13{fill:#081A2E;}
	.st14{fill:#022038;}
	.st15{fill:#001E33;}
	.st16{fill:#232C4D;}
	.st17{fill:#5D4843;}
	.st18{fill:#0C2038;}
	.st19{fill:#323B4C;}
	.st20{fill:#0C2343;}
	.st21{fill:#213349;}
	.st22{fill:#9A8982;}
	.st23{fill:#333647;}
	.st24{fill:#32323A;}
	.st25{fill:#0F3049;}
	.st26{fill:#161516;}
</style>
<g id="Layer_1">
</g>
<g id="Layer_2">
	<path class="st0" d="M306,183c0,0,6,11,16,8s0-19,0-19S308,180,306,183z"/>
	<path class="st1" d="M315.41,162.51c0,0-12.41,13.49-8.41,20.49c0,0,8.31-8.97,14.15-6.98c5.85,1.98,0.43-17.45-5.36-14.73"/>
	<path class="st2" d="M429,276c0,0-12-172-93-134c0,0-18,3-23,23c0,0,15,16,6,26c0,0,1,46-23,68s32,31,32,31S446,291,429,276z"/>
	<path class="st3" d="M439,280c0,0-18-58-143-21c0,0-36,18-103,141s170-53,170-53l76-44"/>
	<path class="st4" d="M293,532c0,0-5.91-4.08,18.54-46.54S336,443,336,443l23,29l-20,37c0,0-31,55-27,35L293,532z"/>
	<path class="st5" d="M397,455c0,0,3,70-69,40s61-59,61-59"/>
	<path class="st6" d="M414,402c0,0,32.13,81.1-144.43,110.55C93,542,397,381,414,402z"/>
	<path class="st7" d="M204,564c0,0,76.25-43,90.63-92c14.37-49-105.44,83.07-105.44,83.07L204,564z"/>
	<path class="st8" d="M238,508c0,0-118,249-152,187c0,0,27-106,82-163s70-64.33,70-64.33"/>
	<path class="st9" d="M34.65,680.19C34.65,680.19,77,742,217,511s-97.67,62.94-97.67,62.94L34.65,680.19z"/>
	<path class="st10" d="M201.06,522.22C201.06,522.22,43,752,25,662c0,0-28,8,100-126s119.5-117.25,119.5-117.25
		S295.11,396.44,201.06,522.22z"/>
	<path class="st11" d="M307,459c0,0-47,57-109,63s130-113,130-113"/>
	<path class="st12" d="M307,453c0,0-148.21,115.03-278.61,162.01C28.39,615.01,0,596,213,441S307,453,307,453z"/>
	<path class="st13" d="M119,526c0,0-192,162-28,58s183-125,183-125l-19-33C255,426,131,505,119,526z"/>
	<path class="st14" d="M150.84,478.68c0,0-95.84,109.32-11.84,72.32s99-79,99-79"/>
	<path class="st15" d="M209.31,497.88c0,0-29.31,33.13-40.31,25.13c0,0-38,28-28-15s30-49,30-49l42,20"/>
	<path class="st16" d="M260,606c0,0-24-13-25,17c0,0,11-24,18-10s7-5,7-5"/>
	<path class="st17" d="M295,594c0,0,7,7,13,0s2,6,2,6h14l4.09,1.58c0,0-5.09,8.42-12.09,7.42s-21-7-21-7V594z"/>
	<path class="st18" d="M345,599c0,0,13-3,18,7c0,0-13.98-6.42-16.49-3.71S342,602,345,599z"/>
	<path class="st19" d="M370.05,606.39c0,0,7.95-7.39,9.95,2.61c0,0-3-7-8,0"/>
	<path class="st20" d="M380.64,616.61c0,0,16.36-7.61,16.36,10.39c0,0-5-11-15-8"/>
	<path class="st21" d="M307,621c0,0-18-10-23,19c0,0,16-23,20-13"/>
	<path class="st22" d="M345,616c0,0,13-4,15-3s8-8,8-8s7,2,6,6c0,0,3,2,0,5s-20,5-20,5h-11"/>
	<path class="st23" d="M258.5,531.5l-2-5l-12,7c0,0,31,43,31,54c0,0,6,14,8,13s-12,7-21,5s-9,8-9,8s4,10,14,3c0,0,5,0,5-3s1,1,1,1
		s19-4,22-6c0,0,18,13,29,0c0,0,27,1,24-4s-12-7-28-1s-22-9-22-9L258.5,531.5z"/>
	<path class="st24" d="M293,532c0,0,4,13,2,15s21.5,24.5,29.5,48.5s-13,23-13,23l-9,7c0,0-2,18,10,5c0,0,11-3,26-6c0,0,18,5,19,4
		s10,0,9-2s4,3,6-2c0,0,16,5,12-4s-15-1-15-1h-10c0,0-6-2-7-1s-21-33-21-33l-12-23c0,0-10-12-6-18S293,532,293,532z"/>
	<path class="st25" d="M335,308c0,0,153-107,108,41c0,0-27,90-50,68c0,0-83,87-86,49l-6-11c0,0-95,56-101,40c0,0-21,7-18-5
		c0,0-81,5-35-46S297,288,335,308z"/>
	<circle class="st26" cx="319.5" cy="168.5" r="3.5"/>
</g>
</svg>
